:version 1.10
:name ASF
:units
  mass 1
  length 1
  angle deg
:documentation
  ASF file generated by Kaydara
:root
  axis xyz
  order  tx ty tz rx ry rz
  position 0 0 0
  orientation 0 0 0
:bonedata
  begin
    id 1
    name LeftUpLegDummy
    direction 1 -2.30186e-007 -8.31532e-007
    length 2.93387
    axis 0 0 0 xyz
  end
  begin
    id 2
    name LeftUpLeg
    direction -1.82929e-007 -1 -1.48925e-009
    length 17.3336
    axis -3.48766 0.00143442 -0.000521554 xyz
    dof rx ry rz
  end
  begin
    id 3
    name LeftLeg
    direction -1.82929e-007 -1 -5.23717e-011
    length 14.9995
    axis 3.68178 -0.00654042 -0.000282425 xyz
    dof rx ry rz
  end
  begin
    id 4
    name LeftFoot
    direction 8.31532e-007 -4.54534e-011 1
    length 6.74421
    axis 1.87234e-006 4.66016e-005 -5.96866e-006 xyz
    dof rx ry rz
  end
  begin
    id 5
    name LeftToes
    direction 0.00818058 -0.00485161 0.999955
    length 3.85048
    axis 1.06247e-005 4.65869e-005 -5.96999e-006 xyz
    dof rx ry rz
  end
  begin
    id 6
    name SpineDummy
    direction -5.8607e-008 0.943407 -0.331637
    length 5.93572
    axis 0 0 0 xyz
  end
  begin
    id 7
    name Spine
    direction -1.04988e-007 0.999988 0.00495137
    length 10.1015
    axis -0.001389 0.000121417 6.61666e-006 xyz
    dof rx ry rz
  end
  begin
    id 8
    name Spine1
    direction 0 0 0
    length 0
    axis -0.001389 0.00012144 6.56766e-006 xyz
    dof rx ry rz
  end
  begin
    id 9
    name RightShoulderDummy
    direction -0.98348 0.17941 -0.0240696
    length 3.59882
    axis -0.001389 0.00012144 6.56766e-006 xyz
  end
  begin
    id 10
    name RightShoulder
    direction -0.978693 0.204882 0.0135597
    length 2.70001
    axis 0.215806 0.000203631 -0.00679732 xyz
    dof rx ry rz
  end
  begin
    id 11
    name RightArm
    direction -1 3.85509e-006 8.31394e-007
    length 10.2459
    axis -23.2009 -0.134239 -0.964098 xyz
    dof rx ry rz
  end
  begin
    id 12
    name RightForeArm
    direction -1 3.85569e-006 8.3129e-007
    length 8.16799
    axis -9.92322 0.0658061 0.17887 xyz
    dof rx ry rz
  end
  begin
    id 13
    name RightHand
    direction -0.992843 -0.0414604 0.112003
    length 5.28593
    axis -0.00960638 0.00330669 -0.185225 xyz
    dof rx ry rz
  end
  begin
    id 14
    name LeftShoulder1Dummy
    direction 0.983523 0.179172 -0.0240748
    length 3.59866
    axis -0.001389 0.00012144 6.56766e-006 xyz
  end
  begin
    id 15
    name LeftShoulder1
    direction 0.978627 0.205195 0.0135605
    length 2.70019
    axis -0.001389 0.00012144 6.57583e-006 xyz
    dof rx ry rz
  end
  begin
    id 16
    name LeftArm
    direction 1 3.51895e-006 -8.60188e-007
    length 10.2459
    axis -23.1894 0.134785 0.967513 xyz
    dof rx ry rz
  end
  begin
    id 17
    name LeftForeArm
    direction 1 3.51921e-006 -7.32029e-007
    length 8.16799
    axis -9.91835 -0.0656957 -0.177789 xyz
    dof rx ry rz
  end
  begin
    id 18
    name LeftHand
    direction 0.992938 -0.0411636 0.11126
    length 5.32135
    axis -0.00960237 -0.00340661 0.185177 xyz
    dof rx ry rz
  end
  begin
    id 19
    name HEadDummy
    direction 1.01974e-006 0.999861 -0.016675
    length 2.99946
    axis -0.001389 0.00012144 6.56766e-006 xyz
  end
  begin
    id 20
    name HEad
    direction -0.0222689 0.980941 0.193023
    length 5.12695
    axis -0.001389 0.00012144 6.56766e-006 xyz
    dof rx ry rz
  end
  begin
    id 21
    name RightUpLegDummy
    direction -1 2.30186e-007 8.31532e-007
    length 2.93387
    axis 0 0 0 xyz
  end
  begin
    id 22
    name RightUpLeg
    direction -1.82966e-007 -1 1.56832e-007
    length 17.3336
    axis -3.4909 -0.000906625 0.00028951 xyz
    dof rx ry rz
  end
  begin
    id 23
    name RightLeg
    direction -1.82786e-007 -1 -1.80317e-007
    length 14.9995
    axis 3.68513 0.0193739 -0.131021 xyz
    dof rx ry rz
  end
  begin
    id 24
    name RightFoot
    direction 8.31721e-007 -4.63324e-011 1
    length 6.74421
    axis 4.81691e-005 -0.120479 -0.188785 xyz
    dof rx ry rz
  end
  begin
    id 25
    name RightToes
    direction 0.00124746 -0.014064 0.9999
    length 3.85082
    axis 0.000481921 0.542163 -0.142575 xyz
    dof rx ry rz
  end
:hierarchy
  begin
    root LeftUpLegDummy SpineDummy RightUpLegDummy
    LeftUpLegDummy LeftUpLeg
    LeftUpLeg LeftLeg
    LeftLeg LeftFoot
    LeftFoot LeftToes
    SpineDummy Spine
    Spine Spine1
    Spine1 RightShoulderDummy LeftShoulder1Dummy HEadDummy
    RightShoulderDummy RightShoulder
    RightShoulder RightArm
    RightArm RightForeArm
    RightForeArm RightHand
    LeftShoulder1Dummy LeftShoulder1
    LeftShoulder1 LeftArm
    LeftArm LeftForeArm
    LeftForeArm LeftHand
    HEadDummy HEad
    RightUpLegDummy RightUpLeg
    RightUpLeg RightLeg
    RightLeg RightFoot
    RightFoot RightToes
  end

:SAMPLES-PER-SECOND 30
:FULLY-SPECIFIED
:DEGREES
181
root  4.64898 33.8745 -15.3932 1.09313 26.2867 3.73098
LeftUpLeg  -1.31987 2.61868 -5.04254
LeftLeg  12.1603 -7.38424 -1.09897
LeftFoot  -4.99043 0.0290856 0.667433
LeftToes  -9.33923 8.556e-007 1.17171e-007
Spine  1.16037 1.16952 -4.13084
Spine1  2.16634 2.56112 -8.33233
RightShoulder  -0.0257453 3.74863 2.66302
RightArm  -26.5636 -42.4593 83.8105
RightForeArm  31.1173 35.6117 7.2541
RightHand  0.431336 -12.0021 -3.72941
LeftShoulder1  -0.00691792 -0.305021 -7.07068
LeftArm  -31.0506 39.2639 -54.6889
LeftForeArm  40.0026 -5.97575 -1.05052
LeftHand  0.209599 8.40973 2.47832
HEad  -50.8706 15.6616 -16.0412
RightUpLeg  -15.1137 0.446472 -14.5555
RightLeg  14.832 -0.0937143 -0.0178722
RightFoot  11.0757 0.0376826 -0.0111054
RightToes  -41.0427 -0.225858 -0.320936
182
root  4.62447 33.8541 -15.2076 1.22081 28.2719 3.85117
LeftUpLeg  -1.38889 1.7931 -4.87023
LeftLeg  12.7179 -8.52738 -1.35232
LeftFoot  -5.21116 0.0367276 0.807048
LeftToes  -9.85372 8.556e-007 1.17171e-007
Spine  1.17419 1.26342 -4.1461
Spine1  2.17611 2.7657 -8.37815
RightShoulder  -0.0249667 4.07402 3.00297
RightArm  -28.8739 -42.8758 83.9801
RightForeArm  31.9688 33.9289 6.80872
RightHand  0.400091 -12.1045 -3.40035
LeftShoulder1  -0.00575257 -0.208745 -7.26405
LeftArm  -31.3674 37.2317 -55.4818
LeftForeArm  38.6517 -6.72699 -1.18532
LeftHand  0.192531 7.92919 2.40539
HEad  -50.8233 14.9068 -15.6796
RightUpLeg  -14.6683 0.703382 -15.3263
RightLeg  13.2898 -0.917043 -0.15421
RightFoot  11.6918 0.0565847 -0.1751
RightToes  -41.3641 -0.229471 -0.322072
183
root  4.58802 33.8197 -15.0224 1.46506 30.2228 4.11998
LeftUpLeg  -1.61251 1.15945 -4.77584
LeftLeg  13.4885 -9.80686 -1.68792
LeftFoot  -5.53033 0.0477691 0.989
LeftToes  -10.3624 8.556e-007 1.17171e-007
Spine  1.1732 1.33846 -4.18477
Spine1  2.1583 2.93108 -8.45739
RightShoulder  -0.0241469 4.6454 3.35024
RightArm  -32.1487 -42.5845 84.0794
RightForeArm  32.9656 31.7252 6.25219
RightHand  0.414113 -12.0456 -3.55157
LeftShoulder1  -0.00429356 -0.0854818 -7.60972
LeftArm  -29.4165 34.6257 -56.3327
LeftForeArm  36.57 -8.13542 -1.43861
LeftHand  0.152814 7.48064 1.96546
HEad  -50.5456 14.4192 -15.3041
RightUpLeg  -14.2766 1.00733 -16.2165
RightLeg  11.9186 -1.47112 -0.211619
RightFoot  12.1971 0.0714136 -0.290822
RightToes  -41.672 -0.232741 -0.323861
184
root  4.53713 33.7744 -14.8285 1.88809 32.1404 4.55149
LeftUpLeg  -1.8966 0.437765 -4.77918
LeftLeg  14.1836 -10.9787 -2.0235
LeftFoot  -5.79353 0.0589715 1.16537
LeftToes  -11.1289 8.556e-007 1.17171e-007
Spine  1.15399 1.42093 -4.25208
Spine1  2.10475 3.09425 -8.56561
RightShoulder  -0.0232051 5.15639 3.69016
RightArm  -35.5803 -41.6141 83.8746
RightForeArm  33.7008 29.1818 5.64316
RightHand  0.529582 -12.2727 -4.55043
LeftShoulder1  -0.00108651 -0.0930255 -8.10367
LeftArm  -26.7748 31.4139 -57.2168
LeftForeArm  34.8235 -9.65997 -1.71427
LeftHand  0.128942 7.03059 1.72711
HEad  -50.075 13.8781 -14.9239
RightUpLeg  -13.926 1.99967 -17.2803
RightLeg  10.7921 -1.83812 -0.227755
RightFoot  12.7001 0.0834773 -0.372536
RightToes  -41.9489 -0.234236 -0.32487
185
root  4.46769 33.7256 -14.6124 2.40411 33.9731 5.11316
LeftUpLeg  -2.13165 -0.0965222 -4.78136
LeftLeg  14.7794 -12.2769 -2.39002
LeftFoot  -6.00158 0.0710601 1.35548
LeftToes  -12.1861 8.556e-007 1.17171e-007
Spine  1.12333 1.46754 -4.358
Spine1  2.03319 3.15344 -8.71213
RightShoulder  -0.0221937 5.81413 4.08509
RightArm  -39.1287 -40.0229 83.3527
RightForeArm  34.6778 26.399 5.0114
RightHand  0.712049 -12.6766 -6.0307
LeftShoulder1  0.00675659 -0.227816 -8.56573
LeftArm  -23.9491 27.9207 -58.1613
LeftForeArm  33.1327 -11.2499 -2.00432
LeftHand  0.11891 6.61152 1.68674
HEad  -49.3934 13.4462 -14.5858
RightUpLeg  -13.6614 2.86265 -18.3055
RightLeg  10.3575 -1.64883 -0.191454
RightFoot  12.4374 0.0754139 -0.314516
RightToes  -41.5415 -0.230913 -0.323664
186
root  4.37027 33.6756 -14.3648 2.91218 35.7735 5.67865
LeftUpLeg  -2.31599 -0.409637 -4.6453
LeftLeg  15.337 -13.7868 -2.81599
LeftFoot  -6.18361 0.0850251 1.574
LeftToes  -13.5341 8.556e-007 1.17171e-007
Spine  1.11999 1.45388 -4.44087
Spine1  2.02693 3.0622 -8.7791
RightShoulder  -0.0210933 6.51136 4.48025
RightArm  -41.7629 -37.8796 82.3809
RightForeArm  35.8383 23.7739 4.44353
RightHand  0.913584 -13.1053 -7.56715
LeftShoulder1  0.0191348 -0.455653 -8.95639
LeftArm  -21.5377 24.1853 -59.258
LeftForeArm  31.4579 -12.7328 -2.27784
LeftHand  0.123168 6.23882 1.88773
HEad  -48.832 13.0349 -14.4678
RightUpLeg  -13.5435 2.68518 -18.9645
RightLeg  11.1036 -0.766281 -0.098478
RightFoot  11.0405 0.0463567 -0.102099
RightToes  -40.4051 -0.221728 -0.317399
187
root  4.24372 33.6367 -14.0679 3.47469 37.4726 6.23789
LeftUpLeg  -2.3622 -0.834128 -4.4025
LeftLeg  15.5463 -15.1084 -3.13603
LeftFoot  -6.23098 0.094846 1.74241
LeftToes  -14.9859 8.556e-007 1.17171e-007
Spine  1.13059 1.40067 -4.51329
Spine1  2.05709 2.86969 -8.80101
RightShoulder  -0.0199137 7.20847 4.79217
RightArm  -43.1247 -35.5268 81.2827
RightForeArm  36.6442 21.959 4.06473
RightHand  1.07374 -13.691 -8.55244
LeftShoulder1  0.034778 -0.709925 -9.23795
LeftArm  -19.6038 20.2375 -60.468
LeftForeArm  30.0946 -13.9828 -2.51086
LeftHand  0.128099 5.91868 2.10512
HEad  -48.5296 12.4575 -14.3462
RightUpLeg  -13.5219 2.10905 -19.222
RightLeg  12.8193 -0.691293 -0.110101
RightFoot  9.55054 0.0375415 -0.0718394
RightToes  -37.7008 -0.200382 -0.301769
188
root  4.08506 33.6261 -13.7259 3.96016 39.0318 6.4982
LeftUpLeg  -2.33512 -1.58289 -3.87769
LeftLeg  15.368 -15.9701 -3.25885
LeftFoot  -6.09289 0.095872 1.80125
LeftToes  -16.4631 8.556e-007 1.17171e-007
Spine  1.13041 1.33782 -4.49236
Spine1  2.07547 2.63632 -8.62384
RightShoulder  -0.0185335 7.61966 4.94447
RightArm  -43.3309 -32.9299 80.2515
RightForeArm  36.8802 20.6505 3.79817
RightHand  1.17491 -14.097 -9.10688
LeftShoulder1  0.0522641 -0.981476 -9.47635
LeftArm  -17.6828 16.2731 -61.7262
LeftForeArm  29.0429 -15.0996 -2.72114
LeftHand  0.132472 5.62768 2.32194
HEad  -48.509 11.7801 -14.0624
RightUpLeg  -13.2731 1.63025 -18.8938
RightLeg  13.988 -2.62414 -0.475894
RightFoot  9.60942 0.0663551 -0.411832
RightToes  -38.0429 -0.203041 -0.303802
189
root  3.88862 33.6521 -13.332 4.09336 40.4897 6.13713
LeftUpLeg  -2.21702 -2.60042 -2.82568
LeftLeg  14.8688 -16.406 -3.19879
LeftFoot  -5.80252 0.0890483 1.75693
LeftToes  -17.71 8.556e-007 1.17171e-007
Spine  1.1167 1.24629 -4.319
Spine1  2.07346 2.34188 -8.16684
RightShoulder  -0.0169103 7.80071 5.08221
RightArm  -42.0147 -29.9869 79.1858
RightForeArm  36.4961 19.3237 3.53334
RightHand  1.19821 -13.9953 -9.36452
LeftShoulder1  0.0668909 -1.27383 -9.51525
LeftArm  -15.9175 12.6205 -63.0427
LeftForeArm  28.214 -16.3071 -2.9509
LeftHand  0.126877 5.41631 2.30892
HEad  -48.7182 11.1231 -13.6758
RightUpLeg  -12.3274 1.67552 -17.9929
RightLeg  13.1251 -5.05699 -0.838132
RightFoot  10.308 0.115648 -0.904496
RightToes  -39.6771 -0.215909 -0.313291
190
root  3.65997 33.6838 -12.9011 4.11774 41.922 5.83316
LeftUpLeg  -1.9598 -3.69832 -1.78103
LeftLeg  14.2747 -16.6509 -3.069
LeftFoot  -5.37169 0.0771463 1.64439
LeftToes  -18.8477 8.556e-007 1.17171e-007
Spine  1.14843 1.1254 -4.12954
Spine1  2.15852 2.01676 -7.72028
RightShoulder  -0.015054 7.77238 5.17317
RightArm  -39.4177 -26.8877 78.2466
RightForeArm  35.4781 19.0207 3.47439
RightHand  1.16016 -13.8314 -9.16902
LeftShoulder1  0.0769067 -1.64477 -9.42527
LeftArm  -14.486 9.36293 -64.2974
LeftForeArm  27.6573 -17.6153 -3.20304
LeftHand  0.11985 5.20753 2.26205
HEad  -48.963 10.4089 -13.428
RightUpLeg  -11.0623 0.313736 -17.0671
RightLeg  11.7099 -4.99598 -0.701684
RightFoot  11.5228 0.140665 -1.01647
RightToes  -42.7308 -0.240657 -0.330023
191
root  3.41437 33.7211 -12.4261 3.70106 43.1788 5.18503
LeftUpLeg  -1.51415 -4.62602 -0.439823
LeftLeg  13.7159 -16.826 -2.93358
LeftFoot  -4.98016 0.066698 1.53363
LeftToes  -20.1399 8.556e-007 1.17171e-007
Spine  1.21525 1.03189 -3.82382
Spine1  2.30266 1.78127 -7.09181
RightShoulder  -0.0110861 7.57382 5.18751
RightArm  -36.1318 -23.5344 77.3828
RightForeArm  34.2354 18.9889 3.46918
RightHand  1.1227 -13.4561 -9.12102
LeftShoulder1  0.0792255 -1.88581 -9.22182
LeftArm  -13.035 6.58343 -65.5811
LeftForeArm  27.0841 -19.0369 -3.48135
LeftHand  0.119671 4.94522 2.39748
HEad  -49.0943 9.82258 -13.3159
RightUpLeg  -10.1323 -3.19936 -15.8002
RightLeg  11.3812 -2.9109 -0.391766
RightFoot  11.1232 0.093849 -0.586189
RightToes  -44.6332 -0.256513 -0.339771
192
root  3.15191 33.7718 -11.9174 2.79498 44.1258 3.89593
LeftUpLeg  -1.05741 -5.37931 1.37444
LeftLeg  13.2332 -16.8518 -2.79414
LeftFoot  -4.69528 0.0590699 1.44075
LeftToes  -21.4366 8.556e-007 1.17171e-007
Spine  1.26126 1.03377 -3.35365
Spine1  2.38864 1.77802 -6.1962
RightShoulder  -0.0054225 7.36965 5.30952
RightArm  -32.7848 -20.0801 76.3897
RightForeArm  32.4585 19.0497 3.48257
RightHand  1.07152 -13.2309 -8.84507
LeftShoulder1  0.073195 -2.05258 -8.98102
LeftArm  -11.5829 4.35397 -66.8314
LeftForeArm  26.3759 -20.5019 -3.77345
LeftHand  0.118796 4.56748 2.60426
HEad  -49.1775 9.43661 -13.3873
RightUpLeg  -9.53559 -7.2601 -14.0634
RightLeg  11.6134 -0.481088 -0.0657722
RightFoot  10.4097 0.0448419 -0.114708
RightToes  -45.3044 -0.262183 -0.343084
193
root  2.86255 33.8235 -11.3735 1.70431 44.8155 2.38998
LeftUpLeg  -0.547608 -6.57472 3.29352
LeftLeg  12.6781 -16.2058 -2.53139
LeftFoot  -4.41868 0.0499535 1.29476
LeftToes  -22.7202 8.556e-007 1.17171e-007
Spine  1.26843 1.04552 -2.86704
Spine1  2.3937 1.8529 -5.33713
RightShoulder  0.00306779 7.30259 5.52184
RightArm  -30.0752 -16.6268 75.6092
RightForeArm  30.7452 19.3425 3.54165
RightHand  1.03547 -13.1896 -8.5643
LeftShoulder1  0.0581191 -2.01607 -8.48052
LeftArm  -10.8174 2.8468 -68.0883
LeftForeArm  25.8888 -22.0227 -4.08277
LeftHand  0.116304 4.10869 2.86668
HEad  -49.2071 9.52397 -13.2986
RightUpLeg  -8.7946 -8.59228 -12.1187
RightLeg  11.4275 -0.476034 -0.0634713
RightFoot  9.36923 0.0394855 -0.104296
RightToes  -45.428 -0.263231 -0.343687
194
root  2.56895 33.8668 -10.8126 0.436125 45.271 0.636085
LeftUpLeg  -0.115809 -7.99612 5.29148
LeftLeg  12.3611 -14.9989 -2.26376
LeftFoot  -4.29825 0.0433735 1.15575
LeftToes  -23.6862 8.556e-007 1.17171e-007
Spine  1.27352 1.04354 -2.33905
Spine1  2.36929 1.928 -4.40559
RightShoulder  0.0159769 7.21405 5.66008
RightArm  -27.9542 -13.1402 75.1322
RightForeArm  29.2324 19.727 3.61891
RightHand  0.990204 -13.0035 -8.29805
LeftShoulder1  0.04611 -1.96599 -8.00545
LeftArm  -10.4055 2.4207 -69.0249
LeftForeArm  25.2375 -25.1104 -4.73294
LeftHand  0.11477 3.73729 3.14091
HEad  -49.0568 9.82111 -13.1152
RightUpLeg  -7.90367 -7.3356 -9.86163
RightLeg  10.6979 -2.18575 -0.267384
RightFoot  8.59587 0.0545336 -0.348037
RightToes  -43.7788 -0.249351 -0.335458
